<svg  viewBox="0 0 45 60" fill="none" xmlns="http://www.w3.org/2000/svg">
<path fill-rule="evenodd" clip-rule="evenodd" d="M18.4364 0.112796C10.8419 0.751026 3.76516 3.46631 0.304953 7.06924L0 7.38675L0.0263668 21.5162L0.0305153 23.7894C0.0499247 34.6097 0.0525071 36.0493 0.299977 37.4452C0.337949 37.6594 0.381704 37.8727 0.432154 38.1186C0.453966 38.2249 0.47711 38.3377 0.501507 38.4589C2.18953 46.8483 8.97278 53.9845 20.2909 59.2778C20.4193 59.3378 20.538 59.3936 20.6479 59.4452C21.6025 59.8935 21.8983 60.0324 22.1681 59.9939C22.2887 59.9766 22.4044 59.9239 22.5715 59.8478C22.6145 59.8282 22.6614 59.8068 22.7121 59.7844C34.6292 54.5047 41.9108 47.0353 43.6481 38.3073C43.6657 38.219 43.6825 38.1356 43.6986 38.0557L43.6988 38.0546C43.7447 37.8271 43.7848 37.6282 43.8199 37.4284C44.0635 36.0422 44.0662 34.6134 44.0873 23.2814L44.0907 21.4663L44.1176 7.35818L43.5996 6.87697C40.0984 3.62386 34.1951 1.158 28.0031 0.362214C25.2029 0.0025084 21.0398 -0.106178 18.4364 0.112796ZM24.5802 2.99845C31.1283 3.41344 36.7458 5.26323 40.7379 8.31953L41.0929 8.59138L41.1131 21.6911C41.1336 35.1273 41.1249 35.655 40.8516 37.218C39.5343 44.7537 34.0691 50.7701 23.8345 55.9513L22.0588 56.8501L20.887 56.2757C9.69481 50.7901 3.87169 44.0738 3.06204 35.7167C3.02022 35.286 2.99226 29.8001 2.99119 21.8252L2.98933 8.64585L3.14913 8.50032C7.20806 4.80312 16.285 2.47291 24.5802 2.99845ZM20.5319 4.60871C14.5309 4.85973 9.18585 6.37039 5.43348 8.87578L4.62302 9.41707V18.3833V27.3495H13.3231H22.0234V41.1643C22.0234 48.7628 22.0444 54.9795 22.0703 54.9795C22.1528 54.9795 25.2295 53.377 25.9651 52.9508C33.3306 48.6837 37.6428 43.7325 39.0059 37.9783C39.4046 36.2951 39.4408 35.7877 39.476 31.3906L39.509 27.2782H30.8018H22.0945V15.9201V4.56198L21.544 4.5756C21.2412 4.58308 20.7857 4.59803 20.5319 4.60871ZM31.2481 7.89867C30.1218 8.61488 29.9609 10.2612 30.8787 11.6762C31.1421 12.0821 31.1424 11.6324 30.8793 11.0904C30.1642 9.61655 30.3162 8.77964 31.4695 7.84393C31.7251 7.63644 31.6194 7.66261 31.2481 7.89867ZM36.4321 9.60881C35.2543 10.0769 33.6052 11.0249 33.5029 11.2925C33.4787 11.3555 33.4318 11.3902 33.3982 11.3697C33.1695 11.2276 30.8321 13.623 30.4278 14.4137C30.3647 14.5371 30.2355 14.7315 30.1407 14.8452C29.5891 15.5078 28.6956 17.7664 28.3914 19.2669C28.217 20.1276 27.5149 21.9488 26.6001 23.9132C26.208 24.7552 26.2168 24.8128 26.6861 24.4809C26.8755 24.3471 27.1666 24.1626 27.3328 24.071L27.6351 23.9046L27.4587 23.7198L27.2822 23.535L27.8359 22.2556C29.4632 18.4944 30.3639 16.8844 31.9473 14.9064C32.677 13.9947 32.7122 14.0179 32.0152 14.9512C30.8894 16.4595 28.9835 19.9869 28.9835 20.5626C28.9835 20.8401 30.7008 19.926 31.4924 19.2274C31.8945 18.8725 31.8892 18.8485 31.437 18.9846C30.8436 19.1638 30.9099 19.0973 31.7646 18.6567C32.7835 18.1312 33.6513 17.2839 34.5323 15.954L34.5535 15.922C34.9038 15.3933 35.0466 15.1779 35.0053 15.1332C34.9769 15.1024 34.8615 15.1524 34.6667 15.2368L34.6497 15.2442C33.6148 15.6926 33.6031 15.6501 34.6101 15.1011C35.3872 14.6775 35.7204 14.3245 36.4267 13.1773C37.0715 12.1297 37.0718 12.1243 36.4552 12.2846C36.2211 12.3455 36.0083 12.3951 35.9822 12.3951C35.9561 12.3951 36.1527 12.2458 36.4187 12.0632C37.5104 11.3141 37.7193 11.0068 37.7193 10.1493C37.7193 9.33776 37.4247 9.21412 36.4321 9.60881ZM14.117 12.471C16.3899 12.7818 17.0286 15.0541 15.107 15.9916C14.7927 16.1449 14.6614 16.2387 14.7599 16.2395C16.6424 16.2533 17.6103 18.6714 16.2709 20.0146C15.5012 20.7861 14.7016 20.9557 11.9581 20.9282C9.82132 20.9065 9.6506 20.8887 10.1961 20.7426C10.2204 20.736 10.2437 20.7301 10.266 20.7243C10.3667 20.6986 10.4472 20.6779 10.5115 20.6337C10.7672 20.4577 10.7671 19.9079 10.7664 17.1713L10.7663 16.694V16.3903C10.7666 13.4673 10.7666 12.9271 10.5142 12.7513C10.457 12.7114 10.3868 12.6903 10.3007 12.6643L10.2618 12.6526C10.1486 12.6178 10.0083 12.5698 9.9497 12.5457C9.8911 12.5217 10.4664 12.4848 11.2281 12.464C11.9898 12.4432 12.8264 12.4192 13.0871 12.4106C13.3481 12.4021 13.8115 12.4293 14.117 12.471ZM12.1134 12.6285C12.0239 12.679 12.0093 13.2438 12.0093 16.6689V20.6507L12.1621 20.7327C12.4317 20.8772 13.8954 20.7829 14.3176 20.5938C15.226 20.1866 15.6253 19.3422 15.4801 18.1336C15.3326 16.9036 14.5152 16.3118 12.9646 16.3118C12.238 16.3118 12.2977 16.201 13.0554 16.1425C14.4915 16.032 14.8782 15.6835 14.883 14.4959C14.8883 13.22 14.2646 12.6584 12.7704 12.5941C12.4663 12.581 12.1707 12.5965 12.1134 12.6285ZM34.7949 17.2804C34.6905 17.3853 34.698 17.4321 34.8863 17.8484C36.3292 21.0395 35.1276 22.1141 31.1768 21.1656C30.6425 21.0374 30.6329 21.0374 30.4398 21.1787L30.2441 21.3215L30.5549 21.4147C35.0908 22.7742 36.9064 21.3461 35.2527 17.7191C34.9811 17.1228 34.9662 17.1087 34.7949 17.2804ZM26.1071 19.7033C26.0291 19.7187 25.7894 19.7668 25.5744 19.8103C23.5495 20.2194 23.3063 22.0321 24.9664 24.3439C25.2868 24.7901 25.3989 24.7917 25.0934 24.3458C23.4717 21.9769 23.8299 20.3044 26.0168 20.0341C26.4049 19.9863 26.4653 19.9585 26.485 19.8189C26.5082 19.6552 26.4467 19.6362 26.1071 19.7033ZM12.9531 30.2594C11.0363 31.7786 10.6696 33.8479 11.8662 36.3934C12.5864 37.9249 12.8615 38.981 12.8615 40.2123V40.8084H13.8451H14.8287L14.9637 40.5058C15.3057 39.7391 16.4027 38.9156 17.3042 38.7487L17.3498 38.7402L17.4182 38.7273C17.7299 38.6685 17.8874 38.6388 17.9668 38.7043C18.0478 38.7711 18.0474 38.9373 18.0465 39.2731C18.0463 39.3109 18.0462 39.3508 18.0462 39.3931V40.1141L18.2769 40.0679C21.0745 39.5079 21.5339 35.6897 18.8564 35.2528C16.9154 34.9361 15.1887 36.6855 14.165 40.0062C13.904 40.853 13.8238 40.8431 13.8858 39.9717C13.9809 38.6432 14.206 37.8367 14.8849 36.3934C16.0501 33.916 15.7017 31.7797 13.8949 30.3246L13.8903 30.3209C13.6238 30.1063 13.4984 30.0054 13.3756 30.0084C13.2665 30.0112 13.1594 30.096 12.9573 30.2562L12.9531 30.2594ZM32.6389 33.6768C33.6843 34.0544 33.888 34.4373 33.6345 35.5501C33.2627 37.1828 33.2424 37.206 33.2193 36.0265C33.1881 34.4274 32.5452 33.7368 31.0787 33.7272C29.7575 33.7184 29.1369 34.3094 29.408 35.3188C29.5596 35.8833 29.9703 36.1992 31.911 37.2447C33.7517 38.2362 34.3728 39.3469 33.7946 40.6134C33.1066 42.1201 30.5365 42.7193 28.8061 41.7764C27.8921 41.2786 27.7946 40.951 28.1411 39.5426C28.4282 38.3764 28.4583 38.3585 28.506 39.3266C28.5997 41.2332 29.2288 41.9121 30.9011 41.9121C32.228 41.9121 32.8198 41.4525 32.8182 40.4233C32.8166 39.388 32.3843 38.9498 30.1825 37.7502C28.4341 36.7977 27.8819 35.8337 28.4836 34.782C29.122 33.6658 31.1299 33.1317 32.6389 33.6768ZM7.74791 35.2795C5.21242 35.8494 5.80022 39.6363 8.49205 40.0743L8.74214 40.1149V39.3843V38.6536L9.17813 38.703C10.2877 38.8291 11.3077 39.5511 11.8252 40.5769C11.96 40.8442 12.7904 40.948 12.7904 40.6976C12.7904 40.5168 12.1557 38.6782 11.9025 38.1254C10.99 36.1341 9.24977 34.942 7.74791 35.2795ZM11.5267 41.3102C11.1333 41.4685 11.092 42.2216 11.4622 42.4817C11.659 42.6197 14.9743 42.6411 15.2276 42.5057C15.6271 42.2926 15.6876 41.7796 15.3528 41.4437L15.1451 41.2356L13.4174 41.2402C12.4671 41.2426 11.6164 41.2741 11.5267 41.3102ZM11.8673 43.3234C11.8673 44.0716 11.4987 44.6898 11.0049 44.7702C10.6627 44.826 10.2514 44.6431 10.1931 44.4092C10.0754 43.9392 9.8373 44.8314 9.94863 45.3257C10.1822 46.3647 11.8945 46.3679 12.3723 45.3302L12.5033 45.0455L12.506 45.3302C12.5129 46.0208 12.869 47.168 13.2 47.5656L13.3987 47.8041L13.5995 47.5133C13.8776 47.1111 14.1122 46.4275 14.2156 45.719C14.288 45.2229 14.3138 45.151 14.3674 45.2968C14.5445 45.778 15.0311 46.0779 15.6349 46.0779C16.6323 46.0779 17.0512 45.4597 16.762 44.4151L16.6861 44.1405L16.567 44.3785C16.0746 45.363 15.0588 44.7448 14.8841 43.3541L14.8414 43.016H13.3542H11.8673V43.3234Z" fill="white"/>
</svg>
