<svg width="176" height="240" viewBox="0 0 176 240" fill="none" xmlns="http://www.w3.org/2000/svg">
<path fill-rule="evenodd" clip-rule="evenodd" d="M1.21656 28.277C15.0205 13.8652 43.252 3.00411 73.549 0.451185C83.9349 -0.424713 100.543 0.0100337 111.714 1.44886C136.416 4.632 159.966 14.4955 173.933 27.5079L176 29.4327L175.893 85.8651L175.879 93.1232V93.1243C175.795 138.454 175.784 144.169 174.812 149.714C174.672 150.513 174.512 151.308 174.329 152.219L174.329 152.221C174.264 152.541 174.197 152.876 174.127 153.229C167.196 188.141 138.148 218.019 90.6063 239.138C90.4032 239.228 90.2177 239.312 90.0458 239.391C89.3786 239.696 88.917 239.906 88.4358 239.975C87.3597 240.13 86.183 239.576 82.375 237.783L82.3716 237.781C81.9329 237.574 81.4594 237.351 80.9472 237.111C35.7954 215.938 8.73477 187.393 2.00068 153.836C1.90335 153.351 1.81133 152.901 1.72431 152.476L1.72401 152.474C1.52274 151.491 1.34819 150.638 1.19671 149.781C0.209468 144.197 0.199166 138.439 0.121736 95.1574C0.116613 92.2944 0.111198 89.2671 0.105186 86.0648L0 29.547L1.21656 28.277ZM162.517 33.2781C146.591 21.0529 124.181 13.6537 98.0586 11.9938C64.9662 9.89165 28.7553 19.2125 12.5629 34.0013L11.9254 34.5834L11.9329 87.3007C11.9371 119.2 12.0487 141.144 12.2155 142.867C15.4455 176.295 38.6758 203.161 83.325 225.103L88 227.401L95.0836 223.805C135.913 203.08 157.716 179.015 162.971 148.872C164.061 142.62 164.096 140.509 164.014 86.7645L163.933 34.3655L162.517 33.2781ZM21.6759 35.5031C36.6454 25.4816 57.9686 19.4389 81.9087 18.4349C82.9213 18.3921 84.7381 18.3323 85.9462 18.3024L88.1424 18.2479V63.6803V109.113H122.878H157.615L157.483 125.562C157.343 143.151 157.198 145.18 155.608 151.913C150.17 174.93 132.967 194.735 103.584 211.803C100.649 213.508 88.3751 219.918 88.0457 219.918C87.9426 219.918 87.8587 195.051 87.8587 164.657V109.398H53.1502H18.4428V73.5331V37.6683L21.6759 35.5031ZM123.186 46.705C119.524 41.0448 120.166 34.4595 124.659 31.5947C126.14 30.6504 126.562 30.5457 125.542 31.3757C120.942 35.1186 120.335 38.4662 123.188 44.3614C124.237 46.5298 124.236 48.3286 123.186 46.705ZM133.654 45.17C134.062 44.0997 140.641 40.3077 145.34 38.4352C149.3 36.8565 150.475 37.351 150.475 40.5972C150.475 44.0271 149.642 45.2566 145.286 48.2528C144.225 48.9834 143.441 49.5805 143.545 49.5805C143.649 49.5805 144.498 49.3818 145.432 49.1383C147.892 48.4974 147.891 48.5187 145.318 52.7092C142.501 57.298 141.171 58.7101 138.071 60.4042C134.054 62.6004 134.101 62.7702 138.229 60.9768L138.297 60.9474C139.074 60.6098 139.535 60.4098 139.648 60.5328C139.813 60.7116 139.243 61.5733 137.845 63.688L137.761 63.816C134.246 69.1354 130.784 72.5247 126.719 74.6269C123.31 76.3894 123.045 76.6553 125.413 75.9386C127.217 75.3938 127.238 75.49 125.634 76.9096C122.476 79.7039 115.625 83.3602 115.625 82.2504C115.625 79.9474 123.228 65.838 127.719 59.805C130.5 56.0717 130.36 55.9788 127.448 59.6255C121.132 67.5375 117.538 73.9774 111.047 89.0226L108.838 94.1402L109.542 94.8794L110.245 95.6185L109.04 96.284C108.377 96.6504 107.215 97.3885 106.46 97.9236C104.588 99.2514 104.553 99.0206 106.117 95.6527C109.766 87.7953 112.567 80.5104 113.263 77.0676C114.476 71.0656 118.041 62.0311 120.241 59.3809C120.62 58.9259 121.135 58.1483 121.387 57.6548C123 54.4919 132.324 44.9105 133.237 45.4787C133.371 45.561 133.558 45.4221 133.654 45.17ZM60.2668 63.9666C67.9327 60.2162 65.3848 51.1272 56.3175 49.8839C55.0988 49.7172 53.2501 49.6083 52.2088 49.6424C51.1687 49.6766 47.8313 49.7728 44.7926 49.8561C41.7539 49.9394 39.4589 50.0868 39.6927 50.1829C39.9264 50.2791 40.4863 50.4713 40.9379 50.6102C40.9909 50.6265 41.0425 50.6421 41.0928 50.6573C41.4363 50.761 41.7163 50.8456 41.9446 51.0051C42.9516 51.7085 42.9514 53.8692 42.9503 65.5614L42.9503 66.7759C42.9503 67.4402 42.9504 68.0763 42.9506 68.6853C42.9535 79.6317 42.9541 81.8309 41.9339 82.5348C41.6774 82.7118 41.3564 82.7942 40.9547 82.8974C40.8656 82.9203 40.7726 82.9442 40.6755 82.9703C38.4995 83.5546 39.1805 83.6262 47.7049 83.7127C58.6497 83.8227 61.8393 83.1445 64.9099 80.0585C70.2532 74.6856 66.3921 65.0134 58.8823 64.9578C58.4892 64.9546 59.013 64.5797 60.2668 63.9666ZM47.9089 66.6754C47.9089 52.9751 47.9674 50.716 48.3244 50.5141C48.5528 50.3859 49.7322 50.3239 50.9455 50.3763C56.9061 50.6337 59.3945 52.8801 59.3732 57.9838C59.3541 62.7339 57.8114 64.1279 52.0824 64.5701C49.0596 64.804 48.8216 65.2473 51.7201 65.2473C57.9059 65.2473 61.1667 67.6144 61.7553 72.5344C62.3344 77.3689 60.7417 80.7464 57.1176 82.3754C55.4335 83.1316 49.594 83.5087 48.5188 82.9308L47.9089 82.6029V66.6754ZM139.173 71.3935C138.422 69.7283 138.392 69.5413 138.808 69.1216C139.492 68.4347 139.551 68.4913 140.635 70.8766C147.232 85.3844 139.989 91.097 121.894 85.6589L120.654 85.2861L121.435 84.7147C122.205 84.1496 122.243 84.1496 124.374 84.6623C140.136 88.4565 144.929 84.1581 139.173 71.3935ZM102.025 79.2414C102.882 79.0673 103.839 78.875 104.15 78.813C105.505 78.5449 105.75 78.6208 105.658 79.2756C105.579 79.8342 105.338 79.9453 103.79 80.1365C95.0656 81.2175 93.6365 87.9074 100.106 97.3831C101.325 99.167 100.877 99.1606 99.5992 97.3757C92.9767 88.1285 93.9468 80.8778 102.025 79.2414ZM47.3384 145.574C42.5646 135.392 44.0276 127.115 51.6744 121.038L51.6908 121.025C52.4974 120.384 52.9245 120.045 53.3598 120.034C53.8497 120.022 54.3499 120.425 55.4131 121.284L55.4314 121.298C62.6393 127.119 64.0291 135.664 59.3807 145.574C56.6724 151.347 55.7746 154.573 55.3952 159.887C55.1477 163.372 55.4675 163.412 56.5087 160.025C60.593 146.742 67.4811 139.745 75.2246 141.011C85.9058 142.759 84.073 158.032 72.9126 160.272L71.9925 160.456V157.572C71.9925 157.403 71.9929 157.244 71.9933 157.092C71.997 155.749 71.9988 155.085 71.6756 154.817C71.359 154.555 70.7306 154.674 69.4869 154.909C69.3992 154.926 69.3082 154.943 69.2142 154.961C69.1549 154.972 69.0943 154.983 69.0324 154.995C65.4358 155.662 61.0594 158.957 59.6952 162.023L59.1565 163.234H55.2327H51.3089V160.849C51.3089 155.924 50.2113 151.699 47.3384 145.574ZM134.179 142.2C135.191 137.749 134.378 136.217 130.208 134.707C124.187 132.527 116.177 134.663 113.631 139.128C111.23 143.335 113.433 147.191 120.408 151.001C129.192 155.799 130.916 157.552 130.923 161.693C130.929 165.81 128.568 167.648 123.275 167.648C116.603 167.648 114.094 164.933 113.72 157.306C113.53 153.434 113.41 153.506 112.264 158.17C110.882 163.804 111.271 165.115 114.917 167.106C121.82 170.877 132.073 168.48 134.818 162.454C137.124 157.387 134.647 152.945 127.304 148.979C119.561 144.797 117.923 143.533 117.318 141.275C116.237 137.238 118.712 134.874 123.983 134.909C129.834 134.947 132.398 137.71 132.523 144.106C132.615 148.824 132.696 148.731 134.179 142.2ZM33.8776 160.297C23.139 158.545 20.7941 143.398 30.909 141.118C36.9004 139.768 43.8427 144.536 47.4828 152.502C48.4933 154.713 51.0252 162.067 51.0252 162.79C51.0252 163.792 47.7124 163.377 47.1747 162.307C45.1103 158.205 41.041 155.316 36.6146 154.812L34.8753 154.615V157.537V160.46L33.8776 160.297ZM45.7265 169.927C44.2497 168.886 44.4144 165.874 45.9837 165.241C46.3417 165.096 49.7353 164.97 53.5263 164.961L60.4187 164.943L61.2475 165.775C62.583 167.118 62.3418 169.17 60.7481 170.023C59.7377 170.564 46.5117 170.479 45.7265 169.927ZM43.9022 179.081C45.8721 178.759 47.3426 176.287 47.3426 173.294V172.064H53.2745H59.2075L59.3775 173.416C60.0745 178.979 64.1268 181.452 66.0914 177.514L66.5663 176.562L66.8691 177.66C68.023 181.839 66.3517 184.312 62.3726 184.312C59.964 184.312 58.0228 183.112 57.3162 181.187C57.1027 180.604 56.9996 180.891 56.7106 182.876C56.2984 185.71 55.3623 188.444 54.2531 190.053L53.452 191.216L52.6593 190.262C51.3386 188.672 49.9181 184.083 49.8905 181.321L49.8798 180.182L49.3571 181.321C47.451 185.472 40.6202 185.459 39.6884 181.303C39.2443 179.325 40.1941 175.757 40.6638 177.637C40.8965 178.572 42.5369 179.304 43.9022 179.081Z" fill="#0A2457"/>
</svg>
